<svg viewBox="0 0 2000 2000" xmlns="http://www.w3.org/2000/svg" style="fill-rule:evenodd;clip-rule:evenodd;stroke-linejoin:round;stroke-miterlimit:2;">

    <g id="Icon" transform="matrix(1.661592,0,0,1.661592,-628.434041,-145.023424)">

        <g id="Outer-frame">

            <g id="Outer-curve" transform="matrix(1.182819,0.0044,0.004188,-1.125827,-285.140795,1523.71782)">
                <path d="M1385.309,769.522C1385.899,761.141 1385.309,778.063 1385.309,769.522L1428.345,769.831C1428.345,778.467 1428.878,761.338 1428.345,769.831C1415.837,969.084 1258.947,1126.609 1067.244,1126.609C867.503,1126.609 705.339,955.228 705.339,744.133C705.339,532.898 859.363,364.351 1059.237,364.351L1059.019,410.421C882.864,410.421 748.288,557.966 748.288,744.133C748.288,930.176 891.207,1081.219 1067.244,1081.219C1235.317,1081.219 1373.027,943.83 1385.309,769.522" fill="currentColor"></path>
            </g>

            <path id="half-component-outer-frame" d="M969.063,1068.383L971.651,723.668C980.14,692.074 995.02,675.89 1027.421,667.539L1407.828,664.617L1398.541,615.613L1000,616.638C955.57,620.218 926.753,643.158 916.496,689.112L917.265,1063.737L969.063,1068.383Z" fill="currentColor"></path>

        </g>

        <path id="single-component-triangle" d="M1112.213,792.202C1112.213,792.202 1107.85,1096.791 1111.681,1097.277C1159.978,1103.408 1373.746,970.103 1394.426,792.252C1394.426,792.252 1205.253,792.702 1112.213,792.202Z" fill="currentColor"></path>

        <path id="Single-component-arrow" d="M1007.996,1118.182L1059.768,1112.302L1061.398,773.343C1060.529,760.075 1064.004,754.478 1081.943,753.895L1403.72,753.485L1407.828,704.275L1055.924,703.763C1030.488,711.475 1013.598,727.733 1006.971,754.254L1007.996,1118.182Z" fill="currentColor"></path>

        <g id="irregular-arc">

            <path id="half-component-arrow" d="M817.581,874.289L818.34,641.847C834.094,571.387 882.546,535.319 950.856,521.88L1206.869,526.345C1208.634,533.857 1210.354,547.295 1206.869,570.556L944.192,572.37C902.321,586.807 879.115,612.58 871.691,651.074L866.79,962.968" fill="currentColor"></path>

            <path id="half-component" d="M817.581,871.842C834.557,901.472 851.6,931.005 866.972,962.968C799.824,938.759 742.908,889.421 707.049,792.202C668.843,668.352 696.615,566.094 773.126,479.787C830.504,430.452 879.861,403.617 955.257,396.651C1010.184,388.312 1081.534,408.16 1123.528,430.08C1160.482,449.368 1202.982,501.728 1207.216,528.165L1146.335,525.468C1129.122,479.107 1065.448,440.957 980.044,445.072C905.926,449.739 848.886,477.583 803.968,521.88C748.075,582.18 732.369,657.094 745.306,742.424C756.318,797.335 780.497,840.395 817.581,871.842Z" fill="currentColor"></path>

        </g>

    </g>
</svg>